<svg width="336mm" height="223mm" viewBox="0 0 336 223" xmlns="http://www.w3.org/2000/svg" version="1.1" preserveAspectRatio="xMidYMid meet"><g id="svgGroup" stroke-linecap="round" fill-rule="evenodd" font-size="9pt" stroke="#000" stroke-width="0.25mm" fill="none" style="stroke:#000;stroke-width:0.25mm;fill:none"><path d="M 0 192 L 0 203.188 L 3 203.188 L 3 211.813 L 0 211.813 L 0 220.438 L 0 223 L 7.563 223 L 7.563 220 L 16.188 220 L 16.188 223 L 24.813 223 L 24.813 220 L 33.438 220 L 33.438 223 L 42.063 223 L 42.063 220 L 50.688 220 L 50.688 223 L 59.313 223 L 59.313 220 L 67.938 220 L 67.938 223 L 76.563 223 L 76.563 220 L 85.188 220 L 85.188 223 L 93.813 223 L 93.813 220 L 102.438 220 L 102.438 223 L 110 223 L 110 211.813 L 107 211.813 L 107 203.188 L 110 203.188 L 110 194.563 L 110 192 L 102.438 192 L 102.438 195 L 93.813 195 L 93.813 192 L 85.188 192 L 85.188 195 L 76.563 195 L 76.563 192 L 67.938 192 L 67.938 195 L 59.313 195 L 59.313 192 L 50.688 192 L 50.688 195 L 42.063 195 L 42.063 192 L 33.438 192 L 33.438 195 L 24.813 195 L 24.813 192 L 16.188 192 L 16.188 195 L 7.563 195 L 7.563 192 L 0 192 Z" id="front_outsideCutPath" stroke="#000000" stroke-width="0.1" style="stroke:#000000;stroke-width:0.1" vector-effect="non-scaling-stroke"/><path d="M 116 192 L 116 203.188 L 113 203.188 L 113 211.813 L 116 211.813 L 116 220.438 L 116 223 L 120.563 223 L 120.563 220 L 129.188 220 L 129.188 223 L 137.813 223 L 137.813 220 L 146.438 220 L 146.438 223 L 155.063 223 L 155.063 220 L 163.688 220 L 163.688 223 L 172.313 223 L 172.313 220 L 180.938 220 L 180.938 223 L 189.563 223 L 189.563 220 L 198.188 220 L 198.188 223 L 206.813 223 L 206.813 220 L 215.438 220 L 215.438 223 L 220 223 L 220 211.813 L 223 211.813 L 223 203.188 L 220 203.188 L 220 194.563 L 220 192 L 215.438 192 L 215.438 195 L 206.813 195 L 206.813 192 L 198.188 192 L 198.188 195 L 189.563 195 L 189.563 192 L 180.938 192 L 180.938 195 L 172.313 195 L 172.313 192 L 163.688 192 L 163.688 195 L 155.063 195 L 155.063 192 L 146.438 192 L 146.438 195 L 137.813 195 L 137.813 192 L 129.188 192 L 129.188 195 L 120.563 195 L 120.563 192 L 116 192 Z" id="left_outsideCutPath" stroke="#000000" stroke-width="0.1" style="stroke:#000000;stroke-width:0.1" vector-effect="non-scaling-stroke"/><path d="M 229 116 L 229 120.563 L 226 120.563 L 226 129.188 L 229 129.188 L 229 137.813 L 226 137.813 L 226 146.438 L 229 146.438 L 229 155.063 L 226 155.063 L 226 163.688 L 229 163.688 L 229 172.313 L 226 172.313 L 226 180.938 L 229 180.938 L 229 189.563 L 226 189.563 L 226 198.188 L 229 198.188 L 229 206.813 L 226 206.813 L 226 215.438 L 229 215.438 L 229 220 L 233.563 220 L 233.563 223 L 242.188 223 L 242.188 220 L 250.813 220 L 250.813 223 L 259.438 223 L 259.438 220 L 268.063 220 L 268.063 223 L 276.688 223 L 276.688 220 L 285.313 220 L 285.313 223 L 293.938 223 L 293.938 220 L 302.563 220 L 302.563 223 L 311.188 223 L 311.188 220 L 319.813 220 L 319.813 223 L 328.438 223 L 328.438 220 L 333 220 L 333 215.438 L 336 215.438 L 336 206.813 L 333 206.813 L 333 198.188 L 336 198.188 L 336 189.563 L 333 189.563 L 333 180.938 L 336 180.938 L 336 172.313 L 333 172.313 L 333 163.688 L 336 163.688 L 336 155.063 L 333 155.063 L 333 146.438 L 336 146.438 L 336 137.813 L 333 137.813 L 333 129.188 L 336 129.188 L 336 120.563 L 333 120.563 L 333 116 L 328.438 116 L 328.438 113 L 319.813 113 L 319.813 116 L 311.188 116 L 311.188 113 L 302.563 113 L 302.563 116 L 293.938 116 L 293.938 113 L 285.313 113 L 285.313 116 L 276.688 116 L 276.688 113 L 268.063 113 L 268.063 116 L 259.438 116 L 259.438 113 L 250.813 113 L 250.813 116 L 242.188 116 L 242.188 113 L 233.563 113 L 233.563 116 L 229 116 Z" id="top_outsideCutPath" stroke="#000000" stroke-width="0.1" style="stroke:#000000;stroke-width:0.1" vector-effect="non-scaling-stroke"/><path d="M 0 158 L 0 169.188 L 3 169.188 L 3 177.813 L 0 177.813 L 0 186.438 L 0 189 L 7.563 189 L 7.563 186 L 16.188 186 L 16.188 189 L 24.813 189 L 24.813 186 L 33.438 186 L 33.438 189 L 42.063 189 L 42.063 186 L 50.688 186 L 50.688 189 L 59.313 189 L 59.313 186 L 67.938 186 L 67.938 189 L 76.563 189 L 76.563 186 L 85.188 186 L 85.188 189 L 93.813 189 L 93.813 186 L 102.438 186 L 102.438 189 L 110 189 L 110 177.813 L 107 177.813 L 107 169.188 L 110 169.188 L 110 160.563 L 110 158 L 102.438 158 L 102.438 161 L 93.813 161 L 93.813 158 L 85.188 158 L 85.188 161 L 76.563 161 L 76.563 158 L 67.938 158 L 67.938 161 L 59.313 161 L 59.313 158 L 50.688 158 L 50.688 161 L 42.063 161 L 42.063 158 L 33.438 158 L 33.438 161 L 24.813 161 L 24.813 158 L 16.188 158 L 16.188 161 L 7.563 161 L 7.563 158 L 0 158 Z" id="back_outsideCutPath" stroke="#000000" stroke-width="0.1" style="stroke:#000000;stroke-width:0.1" vector-effect="non-scaling-stroke"/><path d="M 116 158 L 116 169.188 L 113 169.188 L 113 177.813 L 116 177.813 L 116 186.438 L 116 189 L 120.563 189 L 120.563 186 L 129.188 186 L 129.188 189 L 137.813 189 L 137.813 186 L 146.438 186 L 146.438 189 L 155.063 189 L 155.063 186 L 163.688 186 L 163.688 189 L 172.313 189 L 172.313 186 L 180.938 186 L 180.938 189 L 189.563 189 L 189.563 186 L 198.188 186 L 198.188 189 L 206.813 189 L 206.813 186 L 215.438 186 L 215.438 189 L 220 189 L 220 177.813 L 223 177.813 L 223 169.188 L 220 169.188 L 220 160.563 L 220 158 L 215.438 158 L 215.438 161 L 206.813 161 L 206.813 158 L 198.188 158 L 198.188 161 L 189.563 161 L 189.563 158 L 180.938 158 L 180.938 161 L 172.313 161 L 172.313 158 L 163.688 158 L 163.688 161 L 155.063 161 L 155.063 158 L 146.438 158 L 146.438 161 L 137.813 161 L 137.813 158 L 129.188 158 L 129.188 161 L 120.563 161 L 120.563 158 L 116 158 Z" id="right_outsideCutPath" stroke="#000000" stroke-width="0.1" style="stroke:#000000;stroke-width:0.1" vector-effect="non-scaling-stroke"/><path d="M 229 3 L 229 7.563 L 226 7.563 L 226 16.188 L 229 16.188 L 229 24.813 L 226 24.813 L 226 33.438 L 229 33.438 L 229 42.063 L 226 42.063 L 226 50.688 L 229 50.688 L 229 59.313 L 226 59.313 L 226 67.938 L 229 67.938 L 229 76.563 L 226 76.563 L 226 85.188 L 229 85.188 L 229 93.813 L 226 93.813 L 226 102.438 L 229 102.438 L 229 107 L 233.563 107 L 233.563 110 L 242.188 110 L 242.188 107 L 250.813 107 L 250.813 110 L 259.438 110 L 259.438 107 L 268.063 107 L 268.063 110 L 276.688 110 L 276.688 107 L 285.313 107 L 285.313 110 L 293.938 110 L 293.938 107 L 302.563 107 L 302.563 110 L 311.188 110 L 311.188 107 L 319.813 107 L 319.813 110 L 328.438 110 L 328.438 107 L 333 107 L 333 102.438 L 336 102.438 L 336 93.813 L 333 93.813 L 333 85.188 L 336 85.188 L 336 76.563 L 333 76.563 L 333 67.938 L 336 67.938 L 336 59.313 L 333 59.313 L 333 50.688 L 336 50.688 L 336 42.063 L 333 42.063 L 333 33.438 L 336 33.438 L 336 24.813 L 333 24.813 L 333 16.188 L 336 16.188 L 336 7.563 L 333 7.563 L 333 3 L 328.438 3 L 328.438 0 L 319.813 0 L 319.813 3 L 311.188 3 L 311.188 0 L 302.563 0 L 302.563 3 L 293.938 3 L 293.938 0 L 285.313 0 L 285.313 3 L 276.688 3 L 276.688 0 L 268.063 0 L 268.063 3 L 259.438 3 L 259.438 0 L 250.813 0 L 250.813 3 L 242.188 3 L 242.188 0 L 233.563 0 L 233.563 3 L 229 3 Z" id="bottom_outsideCutPath" stroke="#000000" stroke-width="0.1" style="stroke:#000000;stroke-width:0.1" vector-effect="non-scaling-stroke"/></g></svg>