<svg width="354mm" height="155mm" viewBox="0 0 354 155" xmlns="http://www.w3.org/2000/svg" version="1.1" preserveAspectRatio="xMidYMid meet"><g id="svgGroup" stroke-linecap="round" fill-rule="evenodd" font-size="9pt" stroke="#000" stroke-width="0.25mm" fill="none" style="stroke:#000;stroke-width:0.25mm;fill:none"><path d="M 0 109 L 0 117.938 L 3 117.938 L 3 127.313 L 0 127.313 L 0 136.688 L 3 136.688 L 3 146.063 L 0 146.063 L 0 155 L 16.438 155 L 16.438 152 L 25.813 152 L 25.813 155 L 35.188 155 L 35.188 152 L 44.563 152 L 44.563 155 L 53.938 155 L 53.938 152 L 63.313 152 L 63.313 155 L 72.688 155 L 72.688 152 L 82.063 152 L 82.063 155 L 91.438 155 L 91.438 152 L 100.813 152 L 100.813 155 L 110.188 155 L 110.188 152 L 119.563 152 L 119.563 155 L 128.938 155 L 136 155 L 136 146.063 L 133 146.063 L 133 136.688 L 136 136.688 L 136 127.313 L 133 127.313 L 133 117.938 L 136 117.938 L 136 109 L 119.563 109 L 119.563 112 L 110.188 112 L 110.188 109 L 100.813 109 L 100.813 112 L 91.438 112 L 91.438 109 L 82.063 109 L 82.063 112 L 72.688 112 L 72.688 109 L 63.313 109 L 63.313 112 L 53.938 112 L 53.938 109 L 44.563 109 L 44.563 112 L 35.188 112 L 35.188 109 L 25.813 109 L 25.813 112 L 16.438 112 L 16.438 109 L 7.063 109 L 0 109 Z" id="front_outsideCutPath" stroke="#FF0000" stroke-width="0.1" style="stroke:#FF0000;stroke-width:0.1" vector-effect="non-scaling-stroke"/><path d="M 142 109 L 142 117.938 L 139 117.938 L 139 127.313 L 142 127.313 L 142 136.688 L 139 136.688 L 139 146.063 L 142 146.063 L 142 155 L 153.563 155 L 153.563 152 L 162.938 152 L 162.938 155 L 172.313 155 L 172.313 152 L 181.688 152 L 181.688 155 L 191.063 155 L 191.063 152 L 200.438 152 L 200.438 155 L 209.813 155 L 212 155 L 212 146.063 L 215 146.063 L 215 136.688 L 212 136.688 L 212 127.313 L 215 127.313 L 215 117.938 L 212 117.938 L 212 109 L 200.438 109 L 200.438 112 L 191.063 112 L 191.063 109 L 181.688 109 L 181.688 112 L 172.313 112 L 172.313 109 L 162.938 109 L 162.938 112 L 153.563 112 L 153.563 109 L 144.188 109 L 142 109 Z" id="left_outsideCutPath" stroke="#FF0000" stroke-width="0.1" style="stroke:#FF0000;stroke-width:0.1" vector-effect="non-scaling-stroke"/><path d="M 221 82 L 221 93.563 L 218 93.563 L 218 102.938 L 221 102.938 L 221 112.313 L 218 112.313 L 218 121.688 L 221 121.688 L 221 131.063 L 218 131.063 L 218 140.438 L 221 140.438 L 221 149.813 L 221 152 L 234.438 152 L 234.438 155 L 243.813 155 L 243.813 152 L 253.188 152 L 253.188 155 L 262.563 155 L 262.563 152 L 271.938 152 L 271.938 155 L 281.313 155 L 281.313 152 L 290.688 152 L 290.688 155 L 300.063 155 L 300.063 152 L 309.438 152 L 309.438 155 L 318.813 155 L 318.813 152 L 328.188 152 L 328.188 155 L 337.563 155 L 337.563 152 L 346.938 152 L 351 152 L 351 140.438 L 354 140.438 L 354 131.063 L 351 131.063 L 351 121.688 L 354 121.688 L 354 112.313 L 351 112.313 L 351 102.938 L 354 102.938 L 354 93.563 L 351 93.563 L 351 84.188 L 351 82 L 337.563 82 L 337.563 79 L 328.188 79 L 328.188 82 L 318.813 82 L 318.813 79 L 309.438 79 L 309.438 82 L 300.063 82 L 300.063 79 L 290.688 79 L 290.688 82 L 281.313 82 L 281.313 79 L 271.938 79 L 271.938 82 L 262.563 82 L 262.563 79 L 253.188 79 L 253.188 82 L 243.813 82 L 243.813 79 L 234.438 79 L 234.438 82 L 225.063 82 L 221 82 Z" id="top_outsideCutPath" stroke="#FF0000" stroke-width="0.1" style="stroke:#FF0000;stroke-width:0.1" vector-effect="non-scaling-stroke"/><path d="M 0 60 L 0 68.938 L 3 68.938 L 3 78.313 L 0 78.313 L 0 87.688 L 3 87.688 L 3 97.063 L 0 97.063 L 0 106 L 16.438 106 L 16.438 103 L 25.813 103 L 25.813 106 L 35.188 106 L 35.188 103 L 44.563 103 L 44.563 106 L 53.938 106 L 53.938 103 L 63.313 103 L 63.313 106 L 72.688 106 L 72.688 103 L 82.063 103 L 82.063 106 L 91.438 106 L 91.438 103 L 100.813 103 L 100.813 106 L 110.188 106 L 110.188 103 L 119.563 103 L 119.563 106 L 128.938 106 L 136 106 L 136 97.063 L 133 97.063 L 133 87.688 L 136 87.688 L 136 78.313 L 133 78.313 L 133 68.938 L 136 68.938 L 136 60 L 119.563 60 L 119.563 63 L 110.188 63 L 110.188 60 L 100.813 60 L 100.813 63 L 91.438 63 L 91.438 60 L 82.063 60 L 82.063 63 L 72.688 63 L 72.688 60 L 63.313 60 L 63.313 63 L 53.938 63 L 53.938 60 L 44.563 60 L 44.563 63 L 35.188 63 L 35.188 60 L 25.813 60 L 25.813 63 L 16.438 63 L 16.438 60 L 7.063 60 L 0 60 Z" id="back_outsideCutPath" stroke="#FF0000" stroke-width="0.1" style="stroke:#FF0000;stroke-width:0.1" vector-effect="non-scaling-stroke"/><path d="M 142 60 L 142 68.938 L 139 68.938 L 139 78.313 L 142 78.313 L 142 87.688 L 139 87.688 L 139 97.063 L 142 97.063 L 142 106 L 153.563 106 L 153.563 103 L 162.938 103 L 162.938 106 L 172.313 106 L 172.313 103 L 181.688 103 L 181.688 106 L 191.063 106 L 191.063 103 L 200.438 103 L 200.438 106 L 209.813 106 L 212 106 L 212 97.063 L 215 97.063 L 215 87.688 L 212 87.688 L 212 78.313 L 215 78.313 L 215 68.938 L 212 68.938 L 212 60 L 200.438 60 L 200.438 63 L 191.063 63 L 191.063 60 L 181.688 60 L 181.688 63 L 172.313 63 L 172.313 60 L 162.938 60 L 162.938 63 L 153.563 63 L 153.563 60 L 144.188 60 L 142 60 Z" id="right_outsideCutPath" stroke="#FF0000" stroke-width="0.1" style="stroke:#FF0000;stroke-width:0.1" vector-effect="non-scaling-stroke"/><path d="M 221 3 L 221 14.563 L 218 14.563 L 218 23.938 L 221 23.938 L 221 33.313 L 218 33.313 L 218 42.688 L 221 42.688 L 221 52.063 L 218 52.063 L 218 61.438 L 221 61.438 L 221 70.813 L 221 73 L 234.438 73 L 234.438 76 L 243.813 76 L 243.813 73 L 253.188 73 L 253.188 76 L 262.563 76 L 262.563 73 L 271.938 73 L 271.938 76 L 281.313 76 L 281.313 73 L 290.688 73 L 290.688 76 L 300.063 76 L 300.063 73 L 309.438 73 L 309.438 76 L 318.813 76 L 318.813 73 L 328.188 73 L 328.188 76 L 337.563 76 L 337.563 73 L 346.938 73 L 351 73 L 351 61.438 L 354 61.438 L 354 52.063 L 351 52.063 L 351 42.688 L 354 42.688 L 354 33.313 L 351 33.313 L 351 23.938 L 354 23.938 L 354 14.563 L 351 14.563 L 351 5.188 L 351 3 L 337.563 3 L 337.563 0 L 328.188 0 L 328.188 3 L 318.813 3 L 318.813 0 L 309.438 0 L 309.438 3 L 300.063 3 L 300.063 0 L 290.688 0 L 290.688 3 L 281.313 3 L 281.313 0 L 271.938 0 L 271.938 3 L 262.563 3 L 262.563 0 L 253.188 0 L 253.188 3 L 243.813 3 L 243.813 0 L 234.438 0 L 234.438 3 L 225.063 3 L 221 3 Z" id="bottom_outsideCutPath" stroke="#FF0000" stroke-width="0.1" style="stroke:#FF0000;stroke-width:0.1" vector-effect="non-scaling-stroke"/></g></svg>