<?xml version="1.0" encoding="UTF-8" standalone="no"?>
<svg
   width="354mm"
   height="235mm"
   viewBox="0 0 354 235"
   version="1.1"
   preserveAspectRatio="xMidYMid meet"
   id="svg15"
   sodipodi:docname="box (1).svg"
   inkscape:version="1.2.1 (9c6d41e410, 2022-07-14)"
   xmlns:inkscape="http://www.inkscape.org/namespaces/inkscape"
   xmlns:sodipodi="http://sodipodi.sourceforge.net/DTD/sodipodi-0.dtd"
   xmlns="http://www.w3.org/2000/svg"
   xmlns:svg="http://www.w3.org/2000/svg">
  <defs
     id="defs19" />
  <sodipodi:namedview
     id="namedview17"
     pagecolor="#505050"
     bordercolor="#eeeeee"
     borderopacity="1"
     inkscape:showpageshadow="0"
     inkscape:pageopacity="0"
     inkscape:pagecheckerboard="0"
     inkscape:deskcolor="#505050"
     inkscape:document-units="mm"
     showgrid="false"
     inkscape:zoom="0.90436676"
     inkscape:cx="484.31678"
     inkscape:cy="709.88898"
     inkscape:window-width="1920"
     inkscape:window-height="1009"
     inkscape:window-x="-8"
     inkscape:window-y="-8"
     inkscape:window-maximized="1"
     inkscape:current-layer="svg15" />
  <path
     d="m 0,208 v 9.375 h 3 v 8.25 H 0 v 8.25 1.125 h 12.625 v -3 h 8.25 v 3 h 8.25 v -3 h 8.25 v 3 h 8.25 v -3 h 8.25 v 3 h 8.25 v -3 h 8.25 v 3 h 8.25 v -3 h 8.25 v 3 h 8.25 v -3 h 8.25 v 3 h 8.25 4.375 v -9.375 h -3 v -8.25 h 3 V 209.125 208 h -12.625 v 3 h -8.25 v -3 h -8.25 v 3 h -8.25 v -3 h -8.25 v 3 h -8.25 v -3 h -8.25 v 3 h -8.25 v -3 h -8.25 v 3 h -8.25 v -3 h -8.25 v 3 h -8.25 v -3 h -8.25 z"
     id="front_outsideCutPath"
     stroke="#FF0000"
     stroke-width="0.1"
     style="font-size:12px;fill:none;fill-rule:evenodd;stroke:#ff0000;stroke-width:0.1;stroke-linecap:round"
     vector-effect="non-scaling-stroke" />
  <path
     d="m 61.935,223.539 h -0.437 v -1.869 a 1.237,1.237 0 0 0 -0.015,-0.194 q -0.033,-0.211 -0.146,-0.333 -0.13,-0.141 -0.38,-0.168 a 1.16,1.16 0 0 0 -0.124,-0.006 q -0.453,0 -0.664,0.245 -0.211,0.245 -0.211,0.809 v 1.516 H 59.52 v -2.889 h 0.356 l 0.071,0.395 h 0.021 a 0.886,0.886 0 0 1 0.347,-0.316 1.066,1.066 0 0 1 0.03,-0.015 1.185,1.185 0 0 1 0.422,-0.112 1.433,1.433 0 0 1 0.119,-0.005 1.728,1.728 0 0 1 0.294,0.023 q 0.308,0.054 0.492,0.229 a 0.759,0.759 0 0 1 0.184,0.29 q 0.045,0.119 0.064,0.268 a 1.91,1.91 0 0 1 0.015,0.247 z m -8.408,-2.889 v 0.34 h -0.736 v 2.549 h -0.438 v -2.549 h -0.516 v -0.198 l 0.516,-0.158 v -0.161 a 1.774,1.774 0 0 1 0.042,-0.402 q 0.128,-0.548 0.652,-0.643 a 1.33,1.33 0 0 1 0.237,-0.02 1.409,1.409 0 0 1 0.2,0.015 q 0.155,0.022 0.338,0.077 l -0.113,0.351 a 2.125,2.125 0 0 0 -0.166,-0.047 q -0.083,-0.02 -0.157,-0.028 a 0.941,0.941 0 0 0 -0.11,-0.007 0.59,0.59 0 0 0 -0.142,0.016 0.379,0.379 0 0 0 -0.224,0.149 0.506,0.506 0 0 0 -0.067,0.135 q -0.052,0.153 -0.052,0.393 v 0.188 z m 10.636,2.528 v 0.335 q -0.064,0.031 -0.183,0.052 a 1.638,1.638 0 0 1 -0.026,0.005 q -0.13,0.021 -0.235,0.022 a 1.122,1.122 0 0 1 -0.014,0 1.143,1.143 0 0 1 -0.337,-0.045 Q 62.997,223.433 62.9,223.03 a 1.376,1.376 0 0 1 -0.034,-0.321 v -1.719 h -0.414 v -0.211 l 0.414,-0.182 0.185,-0.617 h 0.253 v 0.67 h 0.838 v 0.34 h -0.838 v 1.7 a 0.881,0.881 0 0 0 0.012,0.155 q 0.016,0.085 0.049,0.152 a 0.425,0.425 0 0 0 0.063,0.094 0.407,0.407 0 0 0 0.25,0.133 0.585,0.585 0 0 0 0.09,0.007 1.437,1.437 0 0 0 0.21,-0.015 1.328,1.328 0 0 0 0.014,-0.002 2.368,2.368 0 0 0 0.063,-0.011 q 0.065,-0.012 0.108,-0.025 z m -8.445,-2.549 -0.061,0.406 q -0.149,-0.033 -0.269,-0.039 a 1.027,1.027 0 0 0 -0.047,-0.001 0.758,0.758 0 0 0 -0.56,0.242 1.038,1.038 0 0 0 -0.04,0.043 1,1 0 0 0 -0.241,0.561 1.329,1.329 0 0 0 -0.008,0.148 v 1.55 h -0.438 v -2.889 h 0.361 l 0.05,0.535 h 0.022 a 1.478,1.478 0 0 1 0.165,-0.236 1.129,1.129 0 0 1 0.222,-0.199 q 0.227,-0.153 0.499,-0.153 a 2.009,2.009 0 0 1 0.179,0.008 1.467,1.467 0 0 1 0.166,0.024 z m 2.679,2.566 a 1.221,1.221 0 0 0 0.145,-0.199 q 0.211,-0.361 0.211,-0.904 0,-0.688 -0.357,-1.092 a 1.146,1.146 0 0 0 -0.532,-0.343 1.471,1.471 0 0 0 -0.432,-0.06 1.7,1.7 0 0 0 -0.306,0.026 1.158,1.158 0 0 0 -0.675,0.368 1.209,1.209 0 0 0 -0.149,0.206 q -0.204,0.357 -0.204,0.895 a 2.19,2.19 0 0 0 0.027,0.355 1.619,1.619 0 0 0 0.136,0.441 1.439,1.439 0 0 0 0.032,0.063 1.185,1.185 0 0 0 0.432,0.459 q 0.301,0.182 0.688,0.182 a 1.7,1.7 0 0 0 0.297,-0.025 1.167,1.167 0 0 0 0.687,-0.372 z m -1.846,-1.103 q 0,0.554 0.222,0.844 a 0.717,0.717 0 0 0 0.467,0.275 1.087,1.087 0 0 0 0.184,0.015 1.017,1.017 0 0 0 0.268,-0.034 0.708,0.708 0 0 0 0.384,-0.255 0.94,0.94 0 0 0 0.147,-0.285 q 0.043,-0.132 0.062,-0.292 a 2.306,2.306 0 0 0 0.014,-0.268 q 0,-0.354 -0.091,-0.598 a 0.901,0.901 0 0 0 -0.132,-0.239 0.72,0.72 0 0 0 -0.447,-0.267 1.104,1.104 0 0 0 -0.21,-0.019 1.042,1.042 0 0 0 -0.26,0.03 0.697,0.697 0 0 0 -0.389,0.252 0.905,0.905 0 0 0 -0.141,0.272 q -0.078,0.235 -0.078,0.569 z"
     id="front_labelLayer"
     stroke="#777777"
     fill="#777777"
     style="font-size:12px;fill:#777777;fill-rule:evenodd;stroke:#777777;stroke-width:0.25mm;stroke-linecap:round"
     vector-effect="non-scaling-stroke" />
  <path
     d="m 122,208 v 9.375 h -3 v 8.25 h 3 v 8.25 1.125 h 9.625 v -3 h 8.25 v 3 h 8.25 v -3 h 8.25 v 3 h 8.25 v -3 h 8.25 v 3 h 8.25 v -3 h 8.25 v 3 h 8.25 v -3 h 8.25 v 3 h 8.25 v -3 h 8.25 v 3 h 8.25 1.375 v -9.375 h 3 v -8.25 h -3 V 209.125 208 h -9.625 v 3 h -8.25 v -3 h -8.25 v 3 h -8.25 v -3 h -8.25 v 3 h -8.25 v -3 h -8.25 v 3 h -8.25 v -3 h -8.25 v 3 h -8.25 v -3 h -8.25 v 3 h -8.25 v -3 h -8.25 z"
     id="left_outsideCutPath"
     stroke="#FF0000"
     stroke-width="0.1"
     style="font-size:12px;fill:none;fill-rule:evenodd;stroke:#ff0000;stroke-width:0.1;stroke-linecap:round"
     vector-effect="non-scaling-stroke" />
  <path
     d="m 178.921,220.65 v 0.34 h -0.736 v 2.549 h -0.437 v -2.549 h -0.517 v -0.198 l 0.517,-0.158 v -0.161 a 1.774,1.774 0 0 1 0.041,-0.402 q 0.128,-0.548 0.652,-0.643 a 1.33,1.33 0 0 1 0.237,-0.02 1.409,1.409 0 0 1 0.2,0.015 q 0.155,0.022 0.338,0.077 l -0.113,0.351 a 2.125,2.125 0 0 0 -0.166,-0.047 q -0.083,-0.02 -0.157,-0.028 a 0.941,0.941 0 0 0 -0.11,-0.007 0.59,0.59 0 0 0 -0.142,0.016 0.379,0.379 0 0 0 -0.224,0.149 0.506,0.506 0 0 0 -0.067,0.135 q -0.052,0.153 -0.052,0.393 v 0.188 z m -2.049,1.247 v 0.277 h -1.991 a 1.757,1.757 0 0 0 0.031,0.294 q 0.059,0.297 0.226,0.478 a 0.795,0.795 0 0 0 0.418,0.235 1.205,1.205 0 0 0 0.269,0.029 2.312,2.312 0 0 0 0.866,-0.172 2.65,2.65 0 0 0 0.057,-0.023 v 0.39 a 2.628,2.628 0 0 1 -0.239,0.09 2.009,2.009 0 0 1 -0.2,0.054 1.837,1.837 0 0 1 -0.182,0.028 q -0.09,0.009 -0.191,0.013 a 3.566,3.566 0 0 1 -0.126,0.002 1.701,1.701 0 0 1 -0.426,-0.05 1.204,1.204 0 0 1 -0.586,-0.34 1.288,1.288 0 0 1 -0.308,-0.566 q -0.053,-0.2 -0.061,-0.439 a 2.5,2.5 0 0 1 -0.001,-0.079 2.298,2.298 0 0 1 0.042,-0.456 q 0.056,-0.277 0.186,-0.492 a 1.296,1.296 0 0 1 0.116,-0.162 1.122,1.122 0 0 1 0.817,-0.408 1.547,1.547 0 0 1 0.107,-0.003 1.333,1.333 0 0 1 0.376,0.05 1.015,1.015 0 0 1 0.484,0.307 q 0.316,0.357 0.316,0.943 z m 3.905,1.281 v 0.335 q -0.064,0.031 -0.183,0.052 a 1.638,1.638 0 0 1 -0.027,0.005 q -0.129,0.021 -0.234,0.022 a 1.122,1.122 0 0 1 -0.015,0 1.143,1.143 0 0 1 -0.337,-0.045 q -0.37,-0.114 -0.467,-0.517 a 1.376,1.376 0 0 1 -0.034,-0.321 v -1.719 h -0.414 v -0.211 l 0.414,-0.182 0.184,-0.617 h 0.254 v 0.67 h 0.838 v 0.34 h -0.838 v 1.7 a 0.881,0.881 0 0 0 0.012,0.155 q 0.015,0.085 0.049,0.152 a 0.425,0.425 0 0 0 0.062,0.094 0.407,0.407 0 0 0 0.25,0.133 0.585,0.585 0 0 0 0.091,0.007 1.437,1.437 0 0 0 0.21,-0.015 1.328,1.328 0 0 0 0.014,-0.002 2.368,2.368 0 0 0 0.063,-0.011 q 0.065,-0.012 0.108,-0.025 z m -7.116,-3.741 v 4.102 h -0.438 v -4.102 z m 1.231,2.381 h 1.511 a 1.492,1.492 0 0 0 -0.018,-0.24 q -0.04,-0.243 -0.167,-0.394 -0.184,-0.221 -0.527,-0.221 a 0.863,0.863 0 0 0 -0.249,0.035 0.667,0.667 0 0 0 -0.306,0.192 q -0.187,0.205 -0.235,0.553 a 1.653,1.653 0 0 0 -0.009,0.075 z"
     id="left_labelLayer"
     stroke="#777777"
     fill="#777777"
     style="font-size:12px;fill:#777777;fill-rule:evenodd;stroke:#777777;stroke-width:0.25mm;stroke-linecap:round"
     vector-effect="non-scaling-stroke" />
  <path
     d="m 241,122 v 9.625 h -3 v 8.25 h 3 v 8.25 h -3 v 8.25 h 3 v 8.25 h -3 v 8.25 h 3 v 8.25 h -3 v 8.25 h 3 v 8.25 h -3 v 8.25 h 3 v 8.25 h -3 v 8.25 h 3 v 8.25 1.375 h 9.625 v 3 h 8.25 v -3 h 8.25 v 3 h 8.25 v -3 h 8.25 v 3 h 8.25 v -3 h 8.25 v 3 h 8.25 v -3 h 8.25 v 3 h 8.25 v -3 h 8.25 v 3 h 8.25 v -3 h 8.25 1.375 v -9.625 h 3 v -8.25 h -3 v -8.25 h 3 v -8.25 h -3 v -8.25 h 3 v -8.25 h -3 v -8.25 h 3 v -8.25 h -3 v -8.25 h 3 v -8.25 h -3 v -8.25 h 3 v -8.25 h -3 V 123.375 122 h -9.625 v -3 h -8.25 v 3 h -8.25 v -3 h -8.25 v 3 h -8.25 v -3 h -8.25 v 3 h -8.25 v -3 h -8.25 v 3 h -8.25 v -3 h -8.25 v 3 h -8.25 v -3 h -8.25 v 3 h -8.25 z"
     id="top_outsideCutPath"
     stroke="#FF0000"
     stroke-width="0.1"
     style="font-size:12px;fill:none;fill-rule:evenodd;stroke:#ff0000;stroke-width:0.1;stroke-linecap:round"
     vector-effect="non-scaling-stroke" />
  <path
     d="m 304.337,180.263 h -0.136 a 17.796,17.796 0 0 1 0.117,1.315 14.912,14.912 0 0 1 0.019,0.746 v 5.109 h -1.88 v -17.989 h 1.529 l 0.261,1.699 h 0.09 a 5.062,5.062 0 0 1 0.732,-0.831 3.914,3.914 0 0 1 0.956,-0.641 4.709,4.709 0 0 1 1.35,-0.395 6.095,6.095 0 0 1 0.859,-0.058 5.764,5.764 0 0 1 1.629,0.217 4.26,4.26 0 0 1 2.183,1.47 5.646,5.646 0 0 1 0.964,1.882 q 0.379,1.235 0.379,2.854 a 11.026,11.026 0 0 1 -0.147,1.855 q -0.169,0.988 -0.533,1.781 a 5.286,5.286 0 0 1 -0.685,1.116 4.452,4.452 0 0 1 -3.164,1.663 6.378,6.378 0 0 1 -0.626,0.03 5.704,5.704 0 0 1 -1.433,-0.174 4.963,4.963 0 0 1 -0.781,-0.273 q -1.003,-0.448 -1.683,-1.376 z m -18.374,0.045 v 1.438 a 1.85,1.85 0 0 1 -0.219,0.088 q -0.234,0.077 -0.569,0.137 a 7.033,7.033 0 0 1 -0.112,0.019 8.15,8.15 0 0 1 -0.532,0.069 q -0.286,0.027 -0.539,0.027 a 4.912,4.912 0 0 1 -1.447,-0.194 q -2.155,-0.665 -2.155,-3.601 v -7.386 h -1.779 v -0.906 l 1.779,-0.781 0.793,-2.651 h 1.087 v 2.877 h 3.603 v 1.461 h -3.603 v 7.307 a 3.787,3.787 0 0 0 0.055,0.665 q 0.065,0.365 0.208,0.654 a 1.824,1.824 0 0 0 0.27,0.403 1.747,1.747 0 0 0 1.074,0.572 2.513,2.513 0 0 0 0.387,0.028 6.176,6.176 0 0 0 0.905,-0.064 5.694,5.694 0 0 0 0.058,-0.009 10.172,10.172 0 0 0 0.271,-0.047 q 0.26,-0.048 0.44,-0.099 a 2.827,2.827 0 0 0 0.025,-0.007 z m 13.025,-2.778 a 9.713,9.713 0 0 0 0.172,-1.889 11.036,11.036 0 0 0 -0.004,-0.299 q -0.028,-1.034 -0.251,-1.911 a 5.855,5.855 0 0 0 -1.28,-2.48 q -1.534,-1.733 -4.14,-1.733 a 7.304,7.304 0 0 0 -1.312,0.112 4.974,4.974 0 0 0 -2.902,1.581 5.195,5.195 0 0 0 -0.638,0.885 q -0.492,0.857 -0.709,1.956 a 9.764,9.764 0 0 0 -0.171,1.889 9.407,9.407 0 0 0 0.118,1.523 6.956,6.956 0 0 0 0.584,1.898 q 0.703,1.461 1.994,2.243 a 5.236,5.236 0 0 0 1.202,0.534 6.039,6.039 0 0 0 1.755,0.247 7.302,7.302 0 0 0 1.275,-0.106 5.013,5.013 0 0 0 2.95,-1.599 q 1.016,-1.132 1.357,-2.851 z m -9.287,-1.889 q 0,2.379 0.952,3.625 a 3.082,3.082 0 0 0 2.007,1.182 4.67,4.67 0 0 0 0.791,0.064 4.368,4.368 0 0 0 1.152,-0.144 3.04,3.04 0 0 0 1.652,-1.097 q 0.712,-0.922 0.894,-2.48 a 9.905,9.905 0 0 0 0.063,-1.15 9.383,9.383 0 0 0 -0.089,-1.337 q -0.203,-1.405 -0.868,-2.26 a 3.093,3.093 0 0 0 -1.923,-1.147 4.743,4.743 0 0 0 -0.904,-0.082 4.475,4.475 0 0 0 -1.114,0.13 2.995,2.995 0 0 0 -1.672,1.082 3.888,3.888 0 0 0 -0.605,1.168 q -0.178,0.537 -0.262,1.193 a 9.937,9.937 0 0 0 -0.074,1.253 z m 14.636,-0.42 v 0.42 a 12.434,12.434 0 0 0 0.062,1.285 q 0.135,1.296 0.568,2.085 a 2.836,2.836 0 0 0 0.243,0.374 q 0.782,1.01 2.41,1.115 a 6.046,6.046 0 0 0 0.388,0.012 3.169,3.169 0 0 0 1.232,-0.232 q 0.71,-0.296 1.217,-0.973 a 3.748,3.748 0 0 0 0.071,-0.098 4.547,4.547 0 0 0 0.624,-1.329 q 0.18,-0.609 0.248,-1.341 a 10.018,10.018 0 0 0 0.04,-0.921 9.489,9.489 0 0 0 -0.089,-1.346 q -0.196,-1.364 -0.823,-2.217 a 2.925,2.925 0 0 0 -2.139,-1.218 4.046,4.046 0 0 0 -0.427,-0.022 q -1.903,0 -2.752,1.053 -0.796,0.987 -0.866,3.065 a 11.969,11.969 0 0 0 -0.007,0.288 z"
     id="top_labelLayer"
     stroke="#777777"
     fill="#777777"
     style="font-size:12px;fill:#777777;fill-rule:evenodd;stroke:#777777;stroke-width:0.25mm;stroke-linecap:round"
     vector-effect="non-scaling-stroke" />
  <path
     d="m 0,178 v 9.375 h 3 v 8.25 H 0 v 8.25 1.125 h 12.625 v -3 h 8.25 v 3 h 8.25 v -3 h 8.25 v 3 h 8.25 v -3 h 8.25 v 3 h 8.25 v -3 h 8.25 v 3 h 8.25 v -3 h 8.25 v 3 h 8.25 v -3 h 8.25 v 3 h 8.25 4.375 v -9.375 h -3 v -8.25 h 3 V 179.125 178 h -12.625 v 3 h -8.25 v -3 h -8.25 v 3 h -8.25 v -3 h -8.25 v 3 h -8.25 v -3 h -8.25 v 3 h -8.25 v -3 h -8.25 v 3 h -8.25 v -3 h -8.25 v 3 h -8.25 v -3 h -8.25 z"
     id="back_outsideCutPath"
     stroke="#FF0000"
     stroke-width="0.1"
     style="font-size:12px;fill:none;fill-rule:evenodd;stroke:#ff0000;stroke-width:0.1;stroke-linecap:round"
     vector-effect="non-scaling-stroke" />
  <path
     d="m 61.697,192.046 h 0.021 a 2.591,2.591 0 0 1 0.064,-0.087 q 0.074,-0.096 0.179,-0.218 a 9.406,9.406 0 0 1 0.102,-0.117 l 0.934,-0.989 h 0.519 l -1.171,1.231 1.253,1.659 h -0.53 l -1.021,-1.366 -0.329,0.285 v 1.081 h -0.433 v -4.103 h 0.433 v 2.176 q 0,0.145 -0.021,0.448 z m -8.857,1.107 h -0.032 l -0.092,0.372 h -0.314 v -4.103 h 0.438 v 0.997 q 0,0.324 -0.02,0.584 a 5.445,5.445 0 0 1 -10e-4,0.017 h 0.021 a 0.995,0.995 0 0 1 0.726,-0.422 1.495,1.495 0 0 1 0.181,-0.01 1.338,1.338 0 0 1 0.376,0.05 1.001,1.001 0 0 1 0.509,0.339 1.29,1.29 0 0 1 0.226,0.435 q 0.055,0.18 0.076,0.395 a 2.809,2.809 0 0 1 0.013,0.27 2.566,2.566 0 0 1 -0.034,0.432 q -0.04,0.23 -0.125,0.415 a 1.23,1.23 0 0 1 -0.159,0.26 1.036,1.036 0 0 1 -0.736,0.387 1.485,1.485 0 0 1 -0.146,0.007 1.328,1.328 0 0 1 -0.334,-0.041 1.155,1.155 0 0 1 -0.182,-0.063 q -0.233,-0.105 -0.391,-0.321 z m 4.973,0.372 h -0.325 l -0.087,-0.411 H 57.38 q -0.216,0.271 -0.431,0.367 -0.177,0.08 -0.427,0.094 a 1.97,1.97 0 0 1 -0.109,0.003 1.343,1.343 0 0 1 -0.274,-0.026 q -0.167,-0.035 -0.295,-0.116 a 0.754,0.754 0 0 1 -0.105,-0.08 0.719,0.719 0 0 1 -0.217,-0.379 1.101,1.101 0 0 1 -0.027,-0.251 0.757,0.757 0 0 1 0.431,-0.715 q 0.321,-0.17 0.88,-0.199 a 4.275,4.275 0 0 1 0.089,-0.004 l 0.491,-0.015 v -0.18 a 1.257,1.257 0 0 0 -0.013,-0.181 q -0.013,-0.093 -0.042,-0.168 a 0.488,0.488 0 0 0 -0.092,-0.153 0.444,0.444 0 0 0 -0.182,-0.119 q -0.073,-0.026 -0.163,-0.036 a 1.081,1.081 0 0 0 -0.123,-0.007 q -0.361,0 -0.817,0.221 l -0.135,-0.334 a 2.018,2.018 0 0 1 0.39,-0.161 2.297,2.297 0 0 1 0.078,-0.021 2.027,2.027 0 0 1 0.511,-0.066 1.849,1.849 0 0 1 0.281,0.02 q 0.145,0.022 0.26,0.069 a 0.745,0.745 0 0 1 0.225,0.14 0.693,0.693 0 0 1 0.178,0.276 q 0.042,0.113 0.059,0.254 a 1.722,1.722 0 0 1 0.012,0.206 z m 2.829,-2.792 -0.134,0.371 q -0.145,-0.058 -0.317,-0.096 a 1.808,1.808 0 0 0 -0.137,-0.025 q -0.09,-0.013 -0.166,-0.013 a 0.971,0.971 0 0 0 -0.394,0.074 q -0.487,0.214 -0.487,1.049 0,0.35 0.093,0.593 a 0.908,0.908 0 0 0 0.122,0.225 0.695,0.695 0 0 0 0.451,0.269 1.059,1.059 0 0 0 0.186,0.015 1.832,1.832 0 0 0 0.505,-0.073 2.262,2.262 0 0 0 0.236,-0.082 v 0.387 a 1.245,1.245 0 0 1 -0.305,0.108 q -0.141,0.031 -0.304,0.04 a 2.4,2.4 0 0 1 -0.122,0.003 1.636,1.636 0 0 1 -0.398,-0.046 1.109,1.109 0 0 1 -0.573,-0.341 1.266,1.266 0 0 1 -0.264,-0.483 q -0.058,-0.192 -0.074,-0.423 a 2.647,2.647 0 0 1 -0.006,-0.186 q 0,-0.726 0.349,-1.121 a 1.133,1.133 0 0 1 0.621,-0.357 1.718,1.718 0 0 1 0.374,-0.039 q 0.209,0 0.417,0.045 a 2.185,2.185 0 0 1 0.121,0.03 q 0.122,0.033 0.203,0.074 a 0.657,0.657 0 0 1 0.003,0.002 z m -6.958,0.221 a 1.23,1.23 0 0 0 -0.239,0.022 q -0.267,0.052 -0.407,0.235 -0.174,0.226 -0.195,0.724 a 3.372,3.372 0 0 0 -0.003,0.142 2.894,2.894 0 0 0 0.014,0.3 q 0.032,0.301 0.132,0.485 a 0.66,0.66 0 0 0 0.057,0.087 0.635,0.635 0 0 0 0.322,0.217 q 0.144,0.045 0.329,0.045 a 0.873,0.873 0 0 0 0.248,-0.033 0.629,0.629 0 0 0 0.353,-0.261 q 0.198,-0.294 0.198,-0.845 a 2.586,2.586 0 0 0 -0.015,-0.295 q -0.038,-0.322 -0.163,-0.516 a 0.726,0.726 0 0 0 -0.02,-0.03 0.638,0.638 0 0 0 -0.406,-0.257 1.012,1.012 0 0 0 -0.205,-0.02 z m 3.691,1.411 v -0.261 l -0.438,0.018 a 3.214,3.214 0 0 0 -0.256,0.019 q -0.254,0.029 -0.412,0.099 a 0.672,0.672 0 0 0 -0.084,0.044 0.467,0.467 0 0 0 -0.223,0.339 0.691,0.691 0 0 0 -0.008,0.108 q 0,0.238 0.144,0.362 a 0.476,0.476 0 0 0 0.178,0.094 q 0.098,0.029 0.224,0.029 a 1.205,1.205 0 0 0 0.26,-0.026 q 0.229,-0.051 0.382,-0.198 a 0.733,0.733 0 0 0 0.204,-0.366 q 0.029,-0.119 0.029,-0.261 z"
     id="back_labelLayer"
     stroke="#777777"
     fill="#777777"
     style="font-size:12px;fill:#777777;fill-rule:evenodd;stroke:#777777;stroke-width:0.25mm;stroke-linecap:round"
     vector-effect="non-scaling-stroke" />
  <path
     d="m 122,178 v 9.375 h -3 v 8.25 h 3 v 8.25 1.125 h 9.625 v -3 h 8.25 v 3 h 8.25 v -3 h 8.25 v 3 h 8.25 v -3 h 8.25 v 3 h 8.25 v -3 h 8.25 v 3 h 8.25 v -3 h 8.25 v 3 h 8.25 v -3 h 8.25 v 3 h 8.25 1.375 v -9.375 h 3 v -8.25 h -3 V 179.125 178 h -9.625 v 3 h -8.25 v -3 h -8.25 v 3 h -8.25 v -3 h -8.25 v 3 h -8.25 v -3 h -8.25 v 3 h -8.25 v -3 h -8.25 v 3 h -8.25 v -3 h -8.25 v 3 h -8.25 v -3 h -8.25 z"
     id="right_outsideCutPath"
     stroke="#FF0000"
     stroke-width="0.1"
     style="font-size:12px;fill:none;fill-rule:evenodd;stroke:#ff0000;stroke-width:0.1;stroke-linecap:round"
     vector-effect="non-scaling-stroke" />
  <path
     d="m 180.358,192.903 h -0.438 v -1.87 a 1.237,1.237 0 0 0 -0.014,-0.194 q -0.034,-0.211 -0.147,-0.333 -0.13,-0.141 -0.379,-0.168 a 1.16,1.16 0 0 0 -0.124,-0.006 1.325,1.325 0 0 0 -0.248,0.021 q -0.137,0.027 -0.243,0.085 a 0.613,0.613 0 0 0 -0.175,0.142 0.728,0.728 0 0 0 -0.124,0.219 q -0.074,0.2 -0.084,0.498 a 2.825,2.825 0 0 0 -0.002,0.095 v 1.511 h -0.437 V 188.8 h 0.437 v 1.242 a 3.937,3.937 0 0 1 -0.002,0.151 q -0.003,0.071 -0.009,0.132 a 1.712,1.712 0 0 1 -0.01,0.089 h 0.027 q 0.129,-0.209 0.367,-0.329 a 1.124,1.124 0 0 1 0.369,-0.109 1.421,1.421 0 0 1 0.176,-0.011 1.776,1.776 0 0 1 0.298,0.024 q 0.159,0.027 0.284,0.085 a 0.789,0.789 0 0 1 0.213,0.143 q 0.206,0.196 0.252,0.57 a 1.893,1.893 0 0 1 0.013,0.23 z m -4.008,-2.89 h 0.999 v 0.277 l -0.535,0.063 a 0.711,0.711 0 0 1 0.062,0.092 q 0.027,0.047 0.051,0.104 a 1.349,1.349 0 0 1 0.019,0.045 0.842,0.842 0 0 1 0.05,0.201 1.081,1.081 0 0 1 0.008,0.135 1.003,1.003 0 0 1 -0.046,0.312 0.812,0.812 0 0 1 -0.244,0.366 q -0.29,0.253 -0.796,0.253 a 1.407,1.407 0 0 1 -0.163,-0.009 1.188,1.188 0 0 1 -0.08,-0.012 0.779,0.779 0 0 0 -0.125,0.081 q -0.065,0.053 -0.103,0.113 a 0.329,0.329 0 0 0 -0.051,0.178 0.227,0.227 0 0 0 0.011,0.074 q 0.022,0.064 0.086,0.101 0.079,0.046 0.248,0.055 a 1.665,1.665 0 0 0 0.087,0.002 h 0.512 q 0.313,0 0.529,0.088 a 0.791,0.791 0 0 1 0.192,0.11 0.64,0.64 0 0 1 0.238,0.408 0.962,0.962 0 0 1 0.013,0.166 q 0,0.471 -0.37,0.722 a 1.04,1.04 0 0 1 -0.015,0.01 1.313,1.313 0 0 1 -0.338,0.154 q -0.323,0.098 -0.785,0.098 -0.567,0 -0.874,-0.211 -0.287,-0.197 -0.306,-0.547 a 0.924,0.924 0 0 1 -0.001,-0.049 0.669,0.669 0 0 1 0.169,-0.456 0.764,0.764 0 0 1 0.262,-0.191 1.083,1.083 0 0 1 0.212,-0.07 0.454,0.454 0 0 1 -0.176,-0.143 0.539,0.539 0 0 1 -0.01,-0.013 0.406,0.406 0 0 1 -0.074,-0.219 0.503,0.503 0 0 1 -0.001,-0.026 q 0,-0.158 0.085,-0.277 0.084,-0.118 0.266,-0.229 a 0.767,0.767 0 0 1 -0.333,-0.267 0.951,0.951 0 0 1 -0.032,-0.047 0.905,0.905 0 0 1 -0.139,-0.436 1.104,1.104 0 0 1 -0.002,-0.07 q 0,-0.475 0.285,-0.732 a 0.93,0.93 0 0 1 0.356,-0.197 q 0.142,-0.043 0.313,-0.055 a 1.933,1.933 0 0 1 0.137,-0.005 1.678,1.678 0 0 1 0.222,0.014 1.278,1.278 0 0 1 0.187,0.039 z m 6.236,2.528 v 0.335 q -0.064,0.031 -0.184,0.053 a 1.638,1.638 0 0 1 -0.026,0.004 q -0.129,0.021 -0.234,0.022 a 1.122,1.122 0 0 1 -0.015,0 1.143,1.143 0 0 1 -0.337,-0.045 q -0.37,-0.114 -0.467,-0.516 a 1.376,1.376 0 0 1 -0.034,-0.322 v -1.719 h -0.414 v -0.211 l 0.414,-0.182 0.184,-0.617 h 0.253 v 0.67 h 0.839 v 0.34 h -0.839 v 1.701 a 0.881,0.881 0 0 0 0.013,0.154 q 0.015,0.085 0.049,0.153 a 0.425,0.425 0 0 0 0.062,0.093 0.407,0.407 0 0 0 0.25,0.134 0.585,0.585 0 0 0 0.09,0.006 1.437,1.437 0 0 0 0.211,-0.015 1.328,1.328 0 0 0 0.014,-0.002 2.368,2.368 0 0 0 0.063,-0.011 q 0.064,-0.012 0.108,-0.025 z m -9.508,-2.549 -0.061,0.406 q -0.149,-0.033 -0.269,-0.039 a 1.027,1.027 0 0 0 -0.047,-0.001 0.758,0.758 0 0 0 -0.56,0.242 1.038,1.038 0 0 0 -0.04,0.043 1,1 0 0 0 -0.241,0.561 1.329,1.329 0 0 0 -0.008,0.148 v 1.551 h -0.438 v -2.89 h 0.361 l 0.05,0.535 h 0.022 a 1.478,1.478 0 0 1 0.165,-0.236 1.129,1.129 0 0 1 0.222,-0.199 q 0.227,-0.153 0.498,-0.153 a 2.009,2.009 0 0 1 0.18,0.008 1.467,1.467 0 0 1 0.166,0.024 z m 0.978,0.021 v 2.89 h -0.438 v -2.89 z m 2.144,2.824 h -0.525 q -0.218,0 -0.366,0.076 a 0.513,0.513 0 0 0 -0.098,0.066 0.461,0.461 0 0 0 -0.151,0.262 0.7,0.7 0 0 0 -0.015,0.147 0.44,0.44 0 0 0 0.029,0.163 q 0.047,0.118 0.169,0.193 a 0.701,0.701 0 0 0 0.172,0.074 q 0.163,0.047 0.391,0.047 a 2.313,2.313 0 0 0 0.004,0 2.942,2.942 0 0 0 0.287,-0.013 q 0.338,-0.033 0.529,-0.152 a 0.638,0.638 0 0 0 0.148,-0.124 0.478,0.478 0 0 0 0.117,-0.323 0.592,0.592 0 0 0 -0.011,-0.117 q -0.014,-0.068 -0.045,-0.118 a 0.276,0.276 0 0 0 -0.089,-0.09 q -0.145,-0.091 -0.546,-0.091 z m -0.918,-1.899 a 0.854,0.854 0 0 0 0.018,0.179 q 0.037,0.174 0.154,0.28 a 0.566,0.566 0 0 0 0.227,0.124 q 0.087,0.025 0.19,0.03 a 1.127,1.127 0 0 0 0.06,0.002 0.954,0.954 0 0 0 0.249,-0.03 q 0.392,-0.106 0.392,-0.593 a 0.941,0.941 0 0 0 -0.033,-0.257 q -0.082,-0.289 -0.376,-0.366 a 0.952,0.952 0 0 0 -0.24,-0.028 q -0.309,0 -0.475,0.166 a 0.525,0.525 0 0 0 -0.127,0.214 q -0.027,0.083 -0.035,0.184 a 1.151,1.151 0 0 0 -0.004,0.095 z m -1.701,-1.708 q 0,-0.151 0.074,-0.22 a 0.253,0.253 0 0 1 0.163,-0.07 0.334,0.334 0 0 1 0.022,0 q 0.105,0 0.182,0.071 a 0.221,0.221 0 0 1 0.058,0.093 q 0.018,0.054 0.018,0.126 a 0.453,0.453 0 0 1 -0.007,0.083 q -0.008,0.046 -0.027,0.082 a 0.214,0.214 0 0 1 -0.042,0.055 q -0.077,0.072 -0.182,0.072 a 0.278,0.278 0 0 1 -0.096,-0.015 0.246,0.246 0 0 1 -0.089,-0.057 q -0.074,-0.073 -0.074,-0.22 z"
     id="right_labelLayer"
     stroke="#777777"
     fill="#777777"
     style="font-size:12px;fill:#777777;fill-rule:evenodd;stroke:#777777;stroke-width:0.25mm;stroke-linecap:round"
     vector-effect="non-scaling-stroke" />
  <path
     d="m 241,3 v 9.625 h -3 v 8.25 h 3 v 8.25 h -3 v 8.25 h 3 v 8.25 h -3 v 8.25 h 3 v 8.25 h -3 v 8.25 h 3 v 8.25 h -3 v 8.25 h 3 v 8.25 h -3 v 8.25 h 3 v 8.25 1.375 h 9.625 v 3 h 8.25 v -3 h 8.25 v 3 h 8.25 v -3 h 8.25 v 3 h 8.25 v -3 h 8.25 v 3 h 8.25 v -3 h 8.25 v 3 h 8.25 v -3 h 8.25 v 3 h 8.25 v -3 h 8.25 1.375 v -9.625 h 3 v -8.25 h -3 v -8.25 h 3 v -8.25 h -3 v -8.25 h 3 v -8.25 h -3 v -8.25 h 3 v -8.25 h -3 v -8.25 h 3 v -8.25 h -3 v -8.25 h 3 v -8.25 h -3 V 4.375 3 h -9.625 V 0 h -8.25 v 3 h -8.25 V 0 h -8.25 v 3 h -8.25 V 0 h -8.25 v 3 h -8.25 V 0 h -8.25 v 3 h -8.25 V 0 h -8.25 v 3 h -8.25 V 0 h -8.25 v 3 h -8.25 z"
     id="bottom_outsideCutPath"
     stroke="#FF0000"
     stroke-width="0.1"
     style="font-size:12px;fill:none;fill-rule:evenodd;stroke:#ff0000;stroke-width:0.1;stroke-linecap:round"
     vector-effect="non-scaling-stroke" />
  <path
     d="m 334.164,66.7 h -1.88 v -8.077 a 5.548,5.548 0 0 0 -0.056,-0.816 q -0.132,-0.889 -0.578,-1.41 a 1.979,1.979 0 0 0 -0.92,-0.595 q -0.328,-0.106 -0.728,-0.136 a 4.365,4.365 0 0 0 -0.324,-0.011 q -1.231,0 -2.011,0.496 a 2.49,2.49 0 0 0 -0.583,0.512 3.107,3.107 0 0 0 -0.527,0.954 q -0.311,0.873 -0.311,2.15 V 66.7 h -1.88 v -8.077 a 5.548,5.548 0 0 0 -0.056,-0.816 q -0.133,-0.889 -0.579,-1.41 -0.549,-0.642 -1.632,-0.729 a 4.403,4.403 0 0 0 -0.35,-0.013 q -1.234,0 -2.006,0.516 a 2.465,2.465 0 0 0 -0.583,0.543 3.153,3.153 0 0 0 -0.467,0.888 q -0.303,0.858 -0.347,2.144 a 13.093,13.093 0 0 0 -0.007,0.44 V 66.7 h -1.88 V 54.284 h 1.529 l 0.306,1.699 h 0.09 a 3.696,3.696 0 0 1 1.501,-1.416 q 0.969,-0.509 2.17,-0.509 a 6.157,6.157 0 0 1 1.385,0.144 q 1.76,0.407 2.421,1.963 h 0.091 a 3.926,3.926 0 0 1 1.478,-1.469 4.717,4.717 0 0 1 0.13,-0.072 4.759,4.759 0 0 1 1.746,-0.531 5.935,5.935 0 0 1 0.656,-0.035 6.537,6.537 0 0 1 1.185,0.1 q 1.241,0.229 1.97,0.981 a 3.238,3.238 0 0 1 0.695,1.138 q 0.187,0.501 0.275,1.125 a 8.625,8.625 0 0 1 0.077,1.198 z m -74.448,-1.598 h -0.136 l -0.396,1.598 h -1.349 V 49.073 h 1.881 v 4.282 a 39.206,39.206 0 0 1 -0.021,1.325 q -0.022,0.626 -0.064,1.184 a 23.495,23.495 0 0 1 -0.006,0.074 h 0.091 a 4.275,4.275 0 0 1 3.121,-1.812 6.422,6.422 0 0 1 0.776,-0.046 5.747,5.747 0 0 1 1.617,0.216 4.302,4.302 0 0 1 2.183,1.455 5.541,5.541 0 0 1 0.972,1.871 q 0.382,1.234 0.382,2.859 a 11.026,11.026 0 0 1 -0.146,1.855 q -0.169,0.988 -0.534,1.781 a 5.286,5.286 0 0 1 -0.685,1.116 4.452,4.452 0 0 1 -3.164,1.663 6.378,6.378 0 0 1 -0.625,0.03 5.704,5.704 0 0 1 -1.433,-0.175 4.963,4.963 0 0 1 -0.782,-0.272 q -1.002,-0.448 -1.682,-1.377 z m 32.059,0.046 v 1.438 a 1.85,1.85 0 0 1 -0.22,0.087 q -0.234,0.078 -0.569,0.138 a 7.033,7.033 0 0 1 -0.112,0.019 8.15,8.15 0 0 1 -0.531,0.069 q -0.287,0.027 -0.54,0.027 a 4.912,4.912 0 0 1 -1.447,-0.195 q -2.155,-0.665 -2.155,-3.6 v -7.386 h -1.778 v -0.906 l 1.778,-0.781 0.793,-2.651 h 1.088 v 2.877 h 3.602 v 1.461 h -3.602 v 7.307 a 3.787,3.787 0 0 0 0.054,0.665 q 0.065,0.365 0.208,0.654 a 1.824,1.824 0 0 0 0.27,0.403 1.747,1.747 0 0 0 1.074,0.572 2.513,2.513 0 0 0 0.387,0.028 6.176,6.176 0 0 0 0.905,-0.064 5.694,5.694 0 0 0 0.058,-0.009 10.172,10.172 0 0 0 0.272,-0.047 q 0.259,-0.048 0.439,-0.099 a 2.827,2.827 0 0 0 0.026,-0.007 z m 8.19,0 v 1.438 a 1.85,1.85 0 0 1 -0.22,0.087 q -0.234,0.078 -0.569,0.138 a 7.033,7.033 0 0 1 -0.112,0.019 8.15,8.15 0 0 1 -0.531,0.069 q -0.287,0.027 -0.539,0.027 a 4.912,4.912 0 0 1 -1.448,-0.195 q -2.155,-0.665 -2.155,-3.6 v -7.386 h -1.778 v -0.906 l 1.778,-0.781 0.793,-2.651 h 1.088 v 2.877 h 3.602 v 1.461 h -3.602 v 7.307 a 3.787,3.787 0 0 0 0.054,0.665 q 0.066,0.365 0.209,0.654 a 1.824,1.824 0 0 0 0.269,0.403 1.747,1.747 0 0 0 1.074,0.572 2.513,2.513 0 0 0 0.388,0.028 6.176,6.176 0 0 0 0.904,-0.064 5.694,5.694 0 0 0 0.058,-0.009 10.172,10.172 0 0 0 0.272,-0.047 q 0.259,-0.048 0.44,-0.099 a 2.827,2.827 0 0 0 0.025,-0.007 z M 282.596,62.37 a 9.713,9.713 0 0 0 0.173,-1.889 11.036,11.036 0 0 0 -0.004,-0.299 q -0.028,-1.034 -0.252,-1.911 a 5.855,5.855 0 0 0 -1.279,-2.48 q -1.535,-1.733 -4.141,-1.733 a 7.304,7.304 0 0 0 -1.312,0.112 4.974,4.974 0 0 0 -2.902,1.581 5.195,5.195 0 0 0 -0.638,0.885 q -0.491,0.857 -0.708,1.956 a 9.764,9.764 0 0 0 -0.172,1.889 9.407,9.407 0 0 0 0.118,1.523 6.956,6.956 0 0 0 0.585,1.898 q 0.702,1.461 1.993,2.243 a 5.236,5.236 0 0 0 1.202,0.534 6.039,6.039 0 0 0 1.755,0.247 7.302,7.302 0 0 0 1.275,-0.106 5.013,5.013 0 0 0 2.95,-1.599 q 1.016,-1.132 1.357,-2.851 z m 30.393,0 a 9.713,9.713 0 0 0 0.173,-1.889 11.036,11.036 0 0 0 -0.004,-0.299 q -0.028,-1.034 -0.252,-1.911 a 5.855,5.855 0 0 0 -1.279,-2.48 q -1.535,-1.733 -4.14,-1.733 a 7.304,7.304 0 0 0 -1.312,0.112 4.974,4.974 0 0 0 -2.902,1.581 5.195,5.195 0 0 0 -0.638,0.885 q -0.492,0.857 -0.709,1.956 a 9.764,9.764 0 0 0 -0.171,1.889 9.407,9.407 0 0 0 0.118,1.523 6.956,6.956 0 0 0 0.584,1.898 q 0.702,1.461 1.994,2.243 a 5.236,5.236 0 0 0 1.202,0.534 6.039,6.039 0 0 0 1.754,0.247 7.302,7.302 0 0 0 1.275,-0.106 5.013,5.013 0 0 0 2.951,-1.599 q 1.015,-1.132 1.356,-2.851 z M 273.31,60.481 q 0,2.378 0.951,3.625 a 3.082,3.082 0 0 0 2.008,1.182 4.67,4.67 0 0 0 0.79,0.064 4.368,4.368 0 0 0 1.153,-0.144 3.04,3.04 0 0 0 1.651,-1.097 q 0.712,-0.922 0.894,-2.481 a 9.905,9.905 0 0 0 0.063,-1.149 9.383,9.383 0 0 0 -0.089,-1.337 q -0.202,-1.406 -0.868,-2.26 a 3.093,3.093 0 0 0 -1.923,-1.148 4.743,4.743 0 0 0 -0.903,-0.081 4.475,4.475 0 0 0 -1.115,0.13 2.995,2.995 0 0 0 -1.672,1.082 3.888,3.888 0 0 0 -0.604,1.168 q -0.179,0.537 -0.262,1.193 a 9.937,9.937 0 0 0 -0.074,1.253 z m 30.393,0 q 0,2.378 0.952,3.625 a 3.082,3.082 0 0 0 2.007,1.182 4.67,4.67 0 0 0 0.791,0.064 4.368,4.368 0 0 0 1.152,-0.144 3.04,3.04 0 0 0 1.651,-1.097 q 0.712,-0.922 0.895,-2.481 a 9.905,9.905 0 0 0 0.063,-1.149 9.383,9.383 0 0 0 -0.089,-1.337 q -0.203,-1.406 -0.869,-2.26 a 3.093,3.093 0 0 0 -1.923,-1.148 4.743,4.743 0 0 0 -0.903,-0.081 4.475,4.475 0 0 0 -1.114,0.13 2.995,2.995 0 0 0 -1.673,1.082 3.888,3.888 0 0 0 -0.604,1.168 q -0.179,0.537 -0.262,1.193 a 9.937,9.937 0 0 0 -0.074,1.253 z m -40.362,-4.826 q -1.926,0 -2.775,1.104 a 3.219,3.219 0 0 0 -0.467,0.888 q -0.314,0.881 -0.371,2.221 a 14.488,14.488 0 0 0 -0.012,0.613 12.434,12.434 0 0 0 0.062,1.285 q 0.135,1.296 0.567,2.085 a 2.836,2.836 0 0 0 0.243,0.374 q 0.782,1.01 2.411,1.115 a 6.046,6.046 0 0 0 0.387,0.012 3.749,3.749 0 0 0 1.065,-0.143 2.704,2.704 0 0 0 1.518,-1.12 q 0.607,-0.903 0.78,-2.369 a 10.775,10.775 0 0 0 0.07,-1.262 q 0,-2.298 -0.764,-3.487 a 3.12,3.12 0 0 0 -0.086,-0.127 2.742,2.742 0 0 0 -1.746,-1.105 4.349,4.349 0 0 0 -0.882,-0.084 z"
     id="bottom_labelLayer"
     stroke="#777777"
     fill="#777777"
     style="font-size:12px;fill:#777777;fill-rule:evenodd;stroke:#777777;stroke-width:0.25mm;stroke-linecap:round"
     vector-effect="non-scaling-stroke" />
</svg>
