<?xml version="1.0" encoding="UTF-8" standalone="no"?>
<!-- Created with Inkscape (http://www.inkscape.org/) -->

<svg
   width="116.1mm"
   height="116.1mm"
   viewBox="0 0 116.1 116.1"
   version="1.1"
   id="svg5"
   inkscape:version="1.2.1 (9c6d41e410, 2022-07-14)"
   sodipodi:docname="uMSX_Case_Bottom.svg"
   xmlns:inkscape="http://www.inkscape.org/namespaces/inkscape"
   xmlns:sodipodi="http://sodipodi.sourceforge.net/DTD/sodipodi-0.dtd"
   xmlns="http://www.w3.org/2000/svg"
   xmlns:svg="http://www.w3.org/2000/svg">
  <sodipodi:namedview
     id="namedview7"
     pagecolor="#c3c3c3"
     bordercolor="#eeeeee"
     borderopacity="1"
     inkscape:showpageshadow="0"
     inkscape:pageopacity="0"
     inkscape:pagecheckerboard="0"
     inkscape:deskcolor="#505050"
     inkscape:document-units="mm"
     showgrid="false"
     inkscape:zoom="2"
     inkscape:cx="166.25"
     inkscape:cy="200.5"
     inkscape:window-width="1920"
     inkscape:window-height="1009"
     inkscape:window-x="-8"
     inkscape:window-y="-8"
     inkscape:window-maximized="1"
     inkscape:current-layer="layer1" />
  <defs
     id="defs2" />
  <g
     inkscape:label="Layer 1"
     inkscape:groupmode="layer"
     id="layer1"
     transform="translate(-42.98016,-128.24674)">
    <g
       id="g310">
      <path
         d="m 46.03016,131.29674 v 9.625 h -3 v 8.25 h 3 v 8.25 h -3 v 8.25 h 3 v 8.25 h -3 v 8.25 h 3 v 8.25 h -3 v 8.25 h 3 v 8.25 h -3 v 8.25 h 3 v 8.25 h -3 v 8.25 h 3 v 8.25 1.375 h 9.625 v 3 h 8.25 v -3 h 8.25 v 3 h 8.25 v -3 h 8.25 v 3 h 8.25 v -3 h 8.25 v 3 h 8.25 v -3 h 8.25 v 3 h 8.25 v -3 h 8.25 v 3 h 8.25 v -3 h 8.25 1.375 v -9.625 h 3 v -8.25 h -3 v -8.25 h 3 v -8.25 h -3 v -8.25 h 3 v -8.25 h -3 v -8.25 h 3 v -8.25 h -3 v -8.25 h 3 v -8.25 h -3 v -8.25 h 3 v -8.25 h -3 v -8.25 -1.375 h -9.625 v -3 h -8.25 v 3 h -8.25 v -3 h -8.25 v 3 h -8.25 v -3 h -8.25 v 3 h -8.25 v -3 h -8.25 v 3 h -8.25 v -3 h -8.25 v 3 h -8.25 v -3 h -8.25 v 3 h -8.25 z"
         id="bottom_outsideCutPath"
         stroke="#FF0000"
         stroke-width="0.1"
         style="font-size:12px;fill:none;fill-rule:evenodd;stroke:#ff0000;stroke-width:0.1;stroke-linecap:round;stroke-opacity:1"
         vector-effect="non-scaling-stroke" />
      <ellipse
         style="opacity:0.41433;fill:none;fill-opacity:0;stroke:#ff0000;stroke-width:0.111647;stroke-linejoin:bevel;stroke-opacity:1;stop-color:#000000"
         id="path509"
         cx="55.98016"
         cy="140.24673"
         rx="1.9441764"
         ry="1.9441763" />
      <ellipse
         style="opacity:0.41433;fill:none;fill-opacity:0;stroke:#ff0000;stroke-width:0.111647;stroke-linejoin:bevel;stroke-opacity:1;stop-color:#000000"
         id="ellipse511"
         cx="54.98016"
         cy="231.24673"
         rx="1.9441764"
         ry="1.9441763" />
      <ellipse
         style="opacity:0.41433;fill:none;fill-opacity:0;stroke:#ff0000;stroke-width:0.111647;stroke-linejoin:bevel;stroke-opacity:1;stop-color:#000000"
         id="ellipse513"
         cx="148.98016"
         cy="232.24673"
         rx="1.9441764"
         ry="1.9441763" />
      <ellipse
         style="opacity:0.41433;fill:none;fill-opacity:0;stroke:#ff0000;stroke-width:0.111647;stroke-linejoin:bevel;stroke-opacity:1;stop-color:#000000"
         id="ellipse515"
         cx="124.98016"
         cy="152.24673"
         rx="1.9441764"
         ry="1.9441763" />
    </g>
  </g>
</svg>
