<?xml version="1.0" encoding="UTF-8" standalone="no"?>
<!-- Created with Inkscape (http://www.inkscape.org/) -->

<svg
   width="116.09999mm"
   height="29.999992mm"
   viewBox="0 0 116.09999 29.999992"
   version="1.1"
   id="svg5"
   inkscape:version="1.2.1 (9c6d41e410, 2022-07-14)"
   sodipodi:docname="uMSX_Case_Left.svg"
   xmlns:inkscape="http://www.inkscape.org/namespaces/inkscape"
   xmlns:sodipodi="http://sodipodi.sourceforge.net/DTD/sodipodi-0.dtd"
   xmlns="http://www.w3.org/2000/svg"
   xmlns:svg="http://www.w3.org/2000/svg">
  <sodipodi:namedview
     id="namedview7"
     pagecolor="#c3c3c3"
     bordercolor="#eeeeee"
     borderopacity="1"
     inkscape:showpageshadow="0"
     inkscape:pageopacity="0"
     inkscape:pagecheckerboard="0"
     inkscape:deskcolor="#505050"
     inkscape:document-units="mm"
     showgrid="false"
     inkscape:zoom="2.0888418"
     inkscape:cx="3.5905065"
     inkscape:cy="45.001014"
     inkscape:window-width="1920"
     inkscape:window-height="1009"
     inkscape:window-x="-8"
     inkscape:window-y="-8"
     inkscape:window-maximized="1"
     inkscape:current-layer="layer1" />
  <defs
     id="defs2" />
  <g
     inkscape:label="Layer 1"
     inkscape:groupmode="layer"
     id="layer1"
     transform="translate(-48.712363,-194.95906)">
    <g
       id="g1302">
      <path
         d="m 51.76484,195.01167 v 10.38013 h -2.999866 v 9.13451 h 2.999866 v 9.13452 1.24561 h 9.624567 v -3.32163 h 8.249628 v 3.32163 h 8.249629 v -3.32163 h 8.249629 v 3.32163 h 8.249628 v -3.32163 h 8.249619 v 3.32163 h 8.24964 v -3.32163 h 8.24962 v 3.32163 h 8.24964 v -3.32163 h 8.24962 v 3.32163 h 8.24963 v -3.32163 h 8.24963 v 3.32163 h 8.24962 1.37494 v -10.38013 h 2.99986 v -9.13451 h -2.99986 v -9.13452 -1.24561 h -9.62456 v 3.32163 h -8.24963 v -3.32163 h -8.24963 v 3.32163 h -8.24962 v -3.32163 h -8.24964 v 3.32163 h -8.24962 v -3.32163 h -8.24964 v 3.32163 h -8.249619 v -3.32163 h -8.249628 v 3.32163 h -8.249629 v -3.32163 h -8.249629 v 3.32163 h -8.249628 v -3.32163 h -8.249629 z"
         id="left_outsideCutPath"
         stroke="#FF0000"
         stroke-width="0.1"
         style="font-size:12px;fill:none;fill-rule:evenodd;stroke:#ff0000;stroke-width:0.105222;stroke-linecap:round"
         vector-effect="non-scaling-stroke" />
      <rect
         style="opacity:0.41433;fill:none;fill-opacity:0;stroke:#ff0000;stroke-width:0.138459;stroke-linecap:round;stroke-linejoin:bevel;stroke-dasharray:none;stop-color:#000000"
         id="rect11532"
         width="39.861542"
         height="16.86154"
         x="108.78159"
         y="203.02829"
         ry="4.1732473" />
      <rect
         style="opacity:0.41433;fill:none;fill-opacity:0;stroke:#ff0000;stroke-width:0.0856476;stroke-linecap:round;stroke-linejoin:bevel;stroke-dasharray:none;stop-color:#000000"
         id="rect12433"
         width="19.914352"
         height="12.914352"
         x="68.755188"
         y="202.00188"
         ry="0" />
    </g>
  </g>
</svg>
